<?xml version="1.0" encoding="UTF-8"?>
<svg id="Layer_1" data-name="Layer 1" xmlns="http://www.w3.org/2000/svg" viewBox="0 0 2025.95 1560.56">
  <defs>
    <style>
      .cls-1 {
        fill: #ec078d;
      }

      .cls-2 {
        fill: #f24da8;
      }
    </style>
  </defs>
  <g>
    <g>
      <path class="cls-1" d="M1754.79,504.07c-.66,4.57,3.72,11.77-2.74,15.96l-1.61-33.6c-.21-4.45-1.32-9.56,5.2-10.79,1.65,9.94.66,17.96-.85,28.44Z"/>
      <path class="cls-1" d="M1762.51,395.13l-.85-37.32c-.08-3.67,1.39-7.69,3.48-10.37l.14,42.75-2.76,4.95Z"/>
      <path class="cls-1" d="M1765.42,345.88c-4.68-1.96-4.15-5.68-4.05-10.07l.6-26.14,3.05-.02.4,36.23Z"/>
      <rect class="cls-1" x="1878.29" y="704.63" width="10.19" height="4" transform="translate(617.44 2269.91) rotate(-71.57)"/>
      <path class="cls-1" d="M1912,618.19c1.31-1.59,3.46-.31,3.45.55l-.03,3.91c0,1.08-2.04,1.78-2.99,1.02-1.45-1.17-1.61-4.06-.44-5.48Z"/>
      <path class="cls-1" d="M1868.53,823.5c.02.33-2.08-1.07-1.01-2.72.59-.91,1.55-2.49,3.91-3.01l-2.9,5.73Z"/>
      <g>
        <rect class="cls-1" x="1227.72" y="881.66" width="3.51" height="16.07" transform="translate(-155.81 269.9) rotate(-11.79)"/>
        <path class="cls-1" d="M1314.36,1088.71c.33-2.04,2.75-1.32,3.09-.09.2.73.3,2.13-.76,2.88-.66.47-2.58-1.26-2.33-2.8Z"/>
        <path class="cls-1" d="M1303.58,1072.9c1.1,1.58,2.69,0,1.09-1.1l1.85,1.99c2.15.68,1.58,4.23-.92,3.25.29-2.36-.62-3.29-2.01-4.14Z"/>
        <path class="cls-1" d="M1295.59,1060.88c1.09,1.61,2.69.01,1.08-1.08l1.81,1.91c.25.26.58.72,1.01.97s.83.6.98,1.02l1.03,2.96c.14.32.48.82,1.88,1.82-1.1-1.58-2.69,0-1.09,1.1-1.09-1.38-1.55-1.72-1.86-1.91-.76-.46-1.5-1.86-.95-2.99l-1-.99-.99-.99-1.9-1.82Z"/>
        <path class="cls-1" d="M1217.67,952.05c1.21,4.07-3.59,4.07-2.38,0-.46-2.66,2.84-2.66,2.38,0Z"/>
        <path class="cls-1" d="M1208.31,936.83c-2.17-3.1-1.45-5.21.1-7.24,1.84,2.03,1.6,5.2-.1,7.24Z"/>
        <path class="cls-1" d="M1878.59,15.55c.85.93,2.43,1.88,3.65,1.69,4.83-.73,6.65-8,4.58-16.98,9.03-1.77,10.24,5.64,13.45,10.43,6.08,9.08,8.7,17.02,10.44,29.06,6.53-8.04,6.44-15.99,9.88-22.66,9.64-2.02,8.43,13.22,21.32,20.41,1.34,3.94,2.05,7.17,2.07,12.01,7.56.64,7.77,6.4,10.7,11.29,3.92,6.55,11.62,10.7,11.41,19.83,6.75-1.05,4.13-6.87,5.17-8.57,3.91-4.55,8.32-7.66,8.07-15.43,9.12,2.77,9.69,11.14,13.43,17.72,6.09,10.72,7.25,21.22,9.8,32.9l6.44,29.59,1.89,20.1,5.16,38.66,2.22,28.68c-1.96,10.55,1.7,19.59,2.26,29.83l1.6,29.29.86,18.66,1.09,39.54,1.87,30.18-1.4,64.77c-.21,9.59-2.65,18.09-4.08,27.61l-5.7,38.12-2.21,44.81c-1.01,20.59-4.24,39.89-10.78,59.26-1.07,14.05-3.82,27.13-10.57,39.51.05,16.46-2.4,31.83-6.08,47.56l-9.45,40.37-7.69,26.34c-4.22,14.47-6.95,27.83-11.9,42.04-2.66,7.65-.56,17.31-5.63,24.57-3.71,5.31-7.14,11.85-6.95,18.58s-4.69,10.57-6.52,15.62l-19.8,54.42-6.42,17.53-7.17,24.86-5.02,6.63c-1.06,8.34-2.76,16.03-7.53,22.76l-14.77,20.82c-2.23-2.09-1.7-4.06-1.52-4.75.55-2.15-4.01-1.97-4.13-.66-.78,8.68-8.94,8.83-12.41,13.88l-39.91,58.01-21.72,22.76-40.27,35.37c-3.56,3.12-5.9,5.28-9.76,8.35l-27.66,22c-5.61,4.46-10.37,7.71-16.19,12.09l-33.22,24.97c-21.55,16.2-43.65,28.85-68.08,39.76l-28.34,9.81c-23.03,7.97-54.88,14.01-80.08,15.96-34.64,2.68-68.42-2.75-101.21-14.01-1.8-4.45-6.63-4.16-10.08-5.76-27.23-12.61-49-31.32-70.98-51.32l-48.18-49.79-10.83-14.96-13.85-22.25-24.31-41.75-11.88-24.02-8.08-17.36-7.42-17.25-21.44-62.16c-2.5-7.26-3.31-10.71-7.34-17.22-4.85-7.84-.45-22.81-6.82-30.76-13.82-17.22,2.45-22.19-8.47-37.3-.52,3.9-.19,6.7-1.94,9.03l-7.52-35.53c1.94-3.1,3.05-6.48,2.72-9.69-.45-4.28-2.46-6.96-6.97-8.91-1.89-14.94-6.32-30.55-4.84-45.52.68-6.86-1.36-9.42-4.1-12.64l-5.32-45.52c-3.56-30.46-4.11-60.28-4.48-91.09l-.4-34.03c-.21-17.73.94-34.23,1.25-51.57l.37-20.82,3.4-51.05c.6-8.95,1.9-15.99,2.37-24.99l1.42-27.39,3.42-12.24,4.64-54.15c6.53-47.62,11.5-94.13,9.98-142.36-.71-22.54-2.05-52.2,8.91-68.14l2.35-14.97c5.04-8.39,8.35-15.97,10.97-25.28,5.21-.83,9.38.33,14.13,2.37l4.56,37.82c7.6-8.95,5.6-19.29,7.45-28.89l3.09-16.05c1.11-5.75,3.54-9.8,4.58-16.37,4.48-8.89,16.62-17.93,26.62-24.72l32.26-21.91,19.23.79c3.76,9.66,19.39,13.05,25.95,5.32,5.18-6.1,9.2-6.73,17.78-6.06l7.88.61c.07,0,4.02,12.76,16.57,20.13,5.26,1.43,8.69,4.11,13.57,5.28l15.18,3.63c13.36-4.1,26.65,1.01,38.38,6.29,5.53,2.48,9.83,4.58,13.14,9.66,7.96,2,14.94,5.24,21.8,9.55,13.36,8.4,11.03,16.36,11.72,25.74l4.25,57.67-.06,31.78-10.7,68.44-15.7,111.77-5.61,59.91c-2.17,23.14-4.88,44.7-5.12,68.2l-1.28,129.69c-.53,53.29-1.21,104.83,6.16,157.79,3.22,23.11,2.53,45.83,7.7,68.19l8.3,35.87,10.27,33.65,7.92,22.34c1.35,3.81,7.03,7.18,6.25,13.38-.84,6.63,4.06,11.85,6.61,17.05l19.25,39.3c4.04,8.25,8.39,23.17,19.89,25.03,15.39,2.49,46.41-29.4,60.74-46.69l27.18-32.78,12.88-16.86,10.73-17.01,21.05-39.32,7.26-16.78,9.17-22.21c3.62-8.76,7.19-15.6,10.16-24.29l9.62-28.13,9.14-28.73,11.05-39.32,5.03-20.29c1.31-2.11,4.5-1.52,3.59,3.58,4.64-5.18,7.23-12.95,5.58-21.74l-4.43,4.67c.55-10.98,1.41-19.01,4.29-29.94l3.1,21.75,1.52-44,4.29-22.82,4.54,26.95,2.19-46.27c.59-12.38-1.29-23.92,2.7-36.43,2.05,1.46,2.78,4.23,3.09,7.43,0,3.54,3.48,2.93,2.96-.65-.5-21.49-.67-40.87,2.06-61.48,1.83-13.82-1.93-28.44,6.49-42.61,2.83,14.16.48,27.25.1,40.91-.84,29.83-.7,59.07,5.19,89.72l5.73-55.04,1.26-36.06,3.62,24.51c.16-.05,1.03-.64,1.61-1.4l2.24-50.33c.8-18.05,1.74-35.23,4.09-53.12l2.14-16.28,1.04-55.3-.88-39.77-1.87-24.31-5.8-57.52c-1.36-13.47-.05-26.27-5.41-39.89l-4.55,24.11c-8.11-10.66-5.33-21.91-10.99-31.95-3.08,13.43,1.31,25.04,2.33,37.86.24,4.46-4.57,3.59-3.93-.23-3.71-8.9-3.02-17.49-3.4-26.33l-1.88-43.99-2.16-21.08-5.69-1.29c-.41-.09-4.24-15.28-4.11-27.66l-8.65,1.86c4-8.82,3.28-15.31,1.38-23.78l7.37-20.12c8.45-4.26,17.72-1.09,25.58,2.7.23-4-.52-9.33,1.84-11.53,6.92-6.46,17.98-4.58,25.38,1.01l6.76-4.25c2.57,3.66,5.19,3.98,8.21,2.75,2.55-1.04,1.38-5.34,1.57-7.61l9.27-3.77c2.86-1.16,2.07-5.58-.1-9.45,9.24,2.76,15.09,3.09,24.5.54,4.59-1.24,11.06,2.94,14.52-4.06,1.72-3.48,5.9-7.62,2.71-13.81,8.01-3.43,14.18,1.28,19.76,5.64l12.45,4.87-.74-11.59-.88-.47c-2.15-1.36.01-4,1.79-2.1l.82,1.1ZM1789.29,564.81l3.2-46.67,1.54-24.62,2.86-22.69,3.76-60.87-.5-17.05-1.06-39.33c-.29-10.76-1.25-21.03-3.14-32.04l-3.64,164.16c-5.55-9.46-2.7-18.78-2.61-27.99l.71-70.72-4.39,68.7-1.69,45.97,1.1,78.28c5.27-3.62,3.47-9.19,3.87-15.11ZM1145.36,386.68c.15.94,1.56,1.55,2.23.1l4.1-52.4c-.13-.08-.93-.4-1.67.31l-4.66,51.99ZM1133.48,379.7h-4v14h4v-14ZM1142.37,476.9c1.49-21.85,4.18-41.32,2.46-62.14-.97-11.79,1.57-23.6-2.98-34.78l-4.71,29.68c-.88,35.19-.99,68.96,3.14,104.1,3.24-11.32,1.18-23.63,2.08-36.86ZM1130.28,465.74c.1-.03.66-.39,1.13-1.06.17-2.92.66-6.09-.73-9.03-.1.03-.66.39-1.13,1.06-.17,2.92-.66,6.09.73,9.03ZM1119.48,459.7h-2v35h2v-35ZM1136.01,680.61c3.91-6.54,2.11-7.48,2.04-13.04l-1.39-111.8c-.37-29.59-.71-58.08-6.28-86.63-5.13,78.49-5.13,154.69-.62,231.73.56,9.64,3.24,17.36,7.51,25.74,3.65-8.73-1.61-13.87-2.63-21.08-1.01-7.07-2.06-19.18,1.37-24.92ZM1178.6,790.31c5.56-20.63-1.41-39.25-4.18-58.53-1.51-10.5-.23-21.39-.77-32.06l-1.8-36.13-.95-64.13-.35-59.11c-.03-5.33-1.09-11.18-2.31-16.79l-2.57,48.17-.08,33.97-.18,26.03c-.09,13.5,2.4,26.37-.66,38.75-2.4-4.49-.24-8.18-2.75-11.28-2.07,8.86-.64,16.76,1.58,24.6,1.64,5.83-.42,10.34-.05,15.78l4.66,68.43,4.07-25.56c5.67,17.9.46,34.87,6.35,47.84ZM1986.76,523.98c-3.06-2.02-4.82.19-4.58,1.63-.93,12.31-1.02,23.01.75,34.83,5.97-12.15,3.77-24.14,3.83-36.46ZM1782.65,590.04l-2.6-49.13c-6.07,30.47-4.29,59.39-3.6,89.11,5.07-13.13,6.91-26.64,6.2-39.97ZM1804.97,940.83c-4.05,6.22-.99,12.46-2.68,17.84l-8.57,27.21c-3.57,11.33-11.91,20.45-7.73,20.77l3.81.3c-3.38,4.54-6.6,8.04-5.39,13.89,21.38-26.29,36.42-56.25,48.9-88.38,2.96-7.63,7.81-13.89,10.68-22.38l7.57-22.38,10.57-29.53,30.61-90.94,4.4-2.73-.96-4.7,4.21-21.04c1.1-5.47,5.68-8.36,4.68-15.35-1.14-7.99-.07-16.26,1.62-24.32l10.52-49.91,4.34-23.26,3.38-35.76c.76-8.07,7.61-16.29,2.45-25.79l-4.94,20.48-3.93-8.5c-4.06,10.51-1.98,21.45-3.91,32.67-12.36,5.75-5.17,22.99-14.65,37.59l-6.55,25.33c-1.37,5.3-10.54,10.65-8.1,17.22,2.19,5.88-2.8,8.29-4.29,13.76l-5.61,20.63c-2.76,10.16-7.96,19.01-7.28,31.33l8.13-25.32,1.71,1.19-7.2,26.19-4.23-.94c-1.48-.33-3.25,1.36-3.73,3.27l-5.85,23.44c-1.23,4.92-4.24,9.7-7.42,13,.29,11.06-3.92,20.28-6.89,30.14l-12.38,41.16-11.4,34.2-5.95,18.39c-2.21,6.82-4.14,15.35-7.94,21.2ZM1974.2,615.5c4.55-13.61,7.11-27.36,3.39-43.62l-8.86,25.02c6.28,4.77,4.73,10.14,5.47,18.6ZM1744.33,599l-1.98-23.51c-4.68,23.84-2.75,46.36-.03,70.47,4.53-14.96,3.39-30.48,2.01-46.96ZM1965.34,624.07c4.26-6.21,4.11-15.06,3.06-22.67-2.75,7.5-4.22,14.32-3.06,22.67ZM1161.88,647l-.91-39.42c-.4.06-1.1.33-1.51,1.11l.43,47.97c6.69-1.81,2.06-6.88,2-9.65ZM1202.03,740.41c6.95-3.98,2.02-9.39,1.88-12.92l-1.66-40.92.08-27.46-1.31-51.72c-3.71,6.04-3.62,12.9-3.41,20.32l1.68,61.42.54,26.56c.18,8.62,2.26,16.14,2.19,24.74ZM1773.32,652.88l-2.21-37.26c-.06-1.01.39-3.48-.44-3.78-4.49-1.61-7.26,41.29-2.5,61.33,4.31-6.26,5.56-13.43,5.15-20.29ZM1735.36,684.27l-.58-46.78c-5.47,17.39-3.34,49.56-2.51,50.06.59.35,3.11-1.6,3.09-3.27ZM1760.5,715.3c3.01-9.62,5.81-17.61,4.56-25.66l-4.72-30.42c-3.74,19.82-6.96,41.46.16,56.07ZM1144.58,753.87c2.52-17.11-.34-34.03-2.48-52.21-.79-6.66,1.79-14.42-4.14-20.17l4.52,49.29,2.1,23.09ZM1722.6,714.01c2.7-7.6,5.65-16,.56-26.44-3.86,8.2-6.77,17.52-.56,26.44ZM1118.11,717.75c.18-.02.87-.26,1.31-1.07.1-3.61.69-7.42-.69-11.03-.14.03-.73.36-1.16,1.06-.18,3.57-.98,7.43.54,11.04ZM1750.49,750.68c6.9-14.42,4-27.62,1.45-40.99-5.92,14.74-4.58,27.77-1.45,40.99ZM1778.76,771.71c.09-9.2,4.63-15.01,8.68-21.61,4.79-7.82,4.37-18.45,4.61-27.15-5.78,6.39-4.38,15.52-7.14,21.78-5.02,2.39-6.58,3.72-6.46,9.86.1,5.34-4.63,11.94.32,17.13ZM1140.52,763.3c1.72-11.84,2.28-23.13-3.67-35.12l3.67,35.12ZM1741.45,771.44c3.03-9.22,4.47-16.84,3.38-25.99-2.46,8.26-7.97,16.17-3.38,25.99ZM1910.29,770.1c5.83-7.45,4.38-13.98,2.8-20.66-5.59,5.17-7.99,15.18-2.8,20.66ZM1210.03,795.47l-3.73-42.84c-.89.01-1.64-.45-2.54-1.03l2.91,48.73c.59,1.54,4.32,1.05,4.14-.07l-.78-4.8ZM1717.54,934.81l12.66-20.32,10.25-22,8.96-27.22c2.75-8.35,4.54-14.31,7.41-22.7l9.06-26.55c3.66-10.73,9.3-20.25,9.68-32.38l-10.86,7.87c4.29,7.86-3.56,11.62-4.98,15.66l-11.54,32.64-25.42,65.05-7.95,20-15.42,32.76c9.53-4.87,12.88-14.34,18.16-22.82ZM1181.49,812.51c-.26-2.92,1.27-6.22-2.2-10.18-3.13,4.45-.81,8.41,1.16,11.25l1.04-1.07ZM1210.57,817.98c5.44-5.61,1.32-10.52-.37-14.36-1.26,5.5-1.41,10,.37,14.36ZM1182.58,813.57l-1.34,1.22c4.83,16.1-.56,32.6,7.18,50.55l2.13.02c2-2.87-.72-7.05-.45-10.13,1.85-14.73,2.52-28.76-1.09-42.24-2.84.97-3.71,3.04-3.77,3.84-.11,1.48-2.49,1.19-2.14-.18s.41-2.17-.52-3.07ZM1367.24,813.72c-3.94,2.69-8.93,4.51-14.16-.74-1.67,8.03-2.47,14.06-.21,22.04,7.29.31,15.12-3.33,21.78-5.19.97-.25,3.31,4.05,4.04,3.3,6.44-6.64-9.29-6.06-11.44-19.4ZM1416.94,1182.47c-1.9-2.52-4.93-1.83-5.59.42,23.18,13.92,47.59,20.66,74.16,22.93,11.72,1,24.08,2.53,35.67.67l24.49-3.94-74.84-4.68-1.36-5.87c-13.32-.25-24.51-5.12-35.24-10.56l-33.16-16.82c-5.55-2.82-7.96-6.09-12.87-9.72l-19.27-14.24c.23,3.57-.66,5.13-2.09,4.7-.8-.24-3.17-1.77-2.94-2.55s2.15-1.43,4.16-3.72c-37.44-33.53-64.93-73.69-87.08-118.87l-27.55-70.77-6.19-21.75c-3.72-13.05-7.94-23.92-10.57-37.53-11.22-11.64-4.11-30.68-12.94-49.33l-.86,19.29c-5.64-9.08-4.08-18.68-7.09-30.08-4.6,9.63.77,18.53,2.12,27.16,2.44,15.64,6.52,30.15,10.18,45.62,2.85,12.06,4.46,23.42,8.84,35.35,12.1,32.94,22.75,65.64,39.87,96.31,14.05,25.19,25.8,51.56,45.92,72.06l58.34,59.45,26.37,15.52c2.39-2.78,4.6-4.24,6.19-3.55l6.03,2.61c.32.14.69.5.96.89.32.46.95.64,1.49.92l1.54.8c1.14.59,1.95,1.01,2.19,1.36.18.26.56,1.09,1.65,1.08,4.42-.05,7.71.99,10.3,2.81l2.98,1.53c-1.13-.71-.05,3.91-3.49.84.02-.27-.58-1.35-1.7-1.24-4.53.43-7.76-.61-10.23-2.8-.29-.26-.87-.58-1.84-.94l-2.5-.93c-.27-.25-.48-.77-.49-1.27-.59-.12-1.18-.31-1.74-.61-.24-.13-.79-.43-1.82-.59ZM1198.06,902.4c-.46-1.65-.93-3.94,1.48-5.81,8.05,9.64-.74,24.84,6.86,39.79,12.7,3.55.31,14.14,9.5,24.53,1.12-1.72,1.98-3.4,3.01-4.31l1.07,16.53c10.11,13.9,13.16,30.34,21.62,44.93l11.69,20.14,10.43,17.46c2.33,3.89,5.11,8.1,10.37,11.73l-12.27-24.02-19.81-42.07c-4.52-9.61-7.26-18.28-12.17-27.94-3.14-6.17-5.35-14.99-7.74-21.76l-9.39-26.66c-3.96-11.23-7.62-22.11-10.1-33.65l-6.51-30.23c-2.82,13.81-4.8,29.23.25,42.62l1.69-1.28ZM1664.17,961.02l17.89-26.77c7.93-11.86,14.8-27.43,18.2-41.73,1.51-6.35,8.43-11.25,4.62-19.39-1.15,9.76-8.09,13.21-12.12,17.7l-10.32,25.56-8.64,17.27-9.63,27.36ZM1198.59,903.68l-.87,3.29c1.32-1.71,2.1-1.69.87-3.29ZM1275.23,950.66c.71-9.85-.32-18.04-6.17-26.72l-6.56-18.21c-.37.58-1.24,1.12-1.34,1.1l7.81,31.93c1.23,5.01,2.41,9.73,5.48,12.82l.77-.92ZM1276.46,952.11c-.11.09-.33.38-.74.65.84,2.8.28,7.45,4.61,9.8,2.61-5.21-2.58-7.4-3.87-10.45ZM1357.32,1097.91c-.64-2.08-1.48-3.41-3.65-4.16-.14,3.18,1.51,4.33,2.8,5.81l.85-1.64ZM1358.61,1099.64l-.61,1.67c1.96,2.25,2.17,4.95,5.88,6.63.21-4.73-2.63-6.58-5.27-8.3ZM1444.43,1212.48l-44.96-18.58c-1.45-.6-3.13-2.31-3.05-3.2s1.33-3.41.37-4.15l-20.49-15.91c-2.29-1.78-7.56-.22-10.49-.46l-14.41-10.37-22.29-21.75c-11.09-10.82-18.46-24.32-31.79-32.8,25.09,41.76,60.28,71.7,101.28,95.27,18.28,10.51,37.65,16.56,58.51,21.47,11.78,2.77,24.79,6.58,36.6-.09-17.73-2.79-32.45-3.22-46.92-9.2,6.79-3.13,12.02.88,17.02.45.39-1.06.61-2.54.59-2.52-8.73-3.08-17.96-3.94-17.43-2.19.25.83-.49,4.88-2.54,4.03ZM1365.58,1108.9c1.1,1.58,2.69,0,1.08-1.1l-1.08,1.1ZM1368.5,1109.79l-.91,3.25c2.49.99,3.1-2.58.91-3.25Z"/>
      </g>
    </g>
    <g>
      <path class="cls-1" d="M1040.88,59.65c-2.16,1.84-3.91,3.63-3.44,6.81.74,5-3.68,8.13-4.87,11.79l-5.08,15.69c3.38-1.81,4.38-6.53,9.57-4.96l-18.71,36.98c5.44-1.75,7.53-5.61,10.61-8.55,1.53,7.89-6.21,11.54-8.48,17.18-5.11,12.66-10.03,24.35-19.11,35.09-3.52,4.16-4.16,10.52-6.93,14.72-5.97,9.03-9.27,18.78-12.01,28.15-.82,2.81-6.95,7.44-.65,10.11,1.98-2.64,4.07-7.28,7.35-8.01,3.27,5.57,6.35,8.49,12.26,9.4-5.26,5.96-6.59,12.9-7.42,19.75,3.11-2.71,4.48-4.25,7.36-3.83l-10.04,13.01c-1.22,5.91-2.8,10.25-5.05,16.85,11.46-7.5,13.55-19.24,21.92-27.49l12.09-11.91c4.7.26,8.98.62,13.41-3.21l-3.35,17.54-12.63,20.83c-3.2,5.27-6.28,9.83-9.02,15.01-6.75,12.78-15.12,23.72-22.01,36.2l-16.38,29.64c-2.78,5.03-7.41,11.04-9.16,16.28-2.22,6.65-6.79,7.65-9.41,12.93l-7.38,14.86-19.2,32.66-13.02,21.23-34.86,52.99-24.67,35.22-32.61,43.61-15.47,11.66c-.33-2.24-.94-4.63-2.4-5.98s-6.28-.68-8.51-.97c-3.29-4.7-6.22-11.89-10.58-16.34,2.9-5.75,6.6-9.89,5.84-15.2-6.17,1.8-7.39,8.41-10.36,10.69-8.72,1.98-10.52,6.51-12.93,13.91-1.88,5.79-6.5,10.54-5.66,17.86,3.14-.65,4.66-2.67,7.41-4.91-.92,8.01-3.91,11.84-7.11,19.43,4.94.03,6.31-2.54,10.38-4.95.59,11.94-6.29,20.72-12.58,30.86l-12.24,19.74c-7.63,6.61-15.36,12.73-18.5,24.32,8.58-2.21,11.17-8.76,18-14.29,2.83,8.45-1.93,12.07-2.76,18.3,6.48-3.43,4.51-10.37,10.15-15.07,2.77,7.3-2.59,13.27-5.52,19.89-5.72,12.91-9.61,25.21-17.37,36.92l-40.64,61.35-18.66,27.48c-6.81,10.03-11.96,28.97-18.44,44.82-7.05,17.24-6.57,37.52-7.3,56.09l-1.65,41.89-1.47,28.06c-.72,13.65-1.89,26.22-2.37,39.94l-2.97,83.86-1.82,46.38c-1.02,26.04-1.22,51.33-5.61,77-.89,5.22-4.16,8.22-5.16,13.1l-5.72,27.79c-10.82,1.29-7.1,19.15-5.96,38.65,3.25.19,6.78.33,8.02,1.44s2,5.72,1.45,7.46c-2.08,6.67,3.29,9.65,4.75,13.12,12.64,30.08-9.25,59.09-1.61,80.91,2.64,7.55,2.93,19.44-5.84,23.02-11.36,4.64-15.32,12.93-19.36,23.32-2.55,3.48-10.74,7.15-8.36,15.17-4.17,4.12-11.45,5.48-13.96,9.6-4.14,6.79-7.97,6.87-15.14,8.49-5.84,1.32-4.98,11.96-5.29,16.82-3.19-1.78-6.32-3.69-7.98-2.37-1.46,1.17-1.06,4.19-1.53,6.02l-6.87,26.32c-2.8,10.74-2.98-4.89-11.1-11.14-5.66-15.68,3.93-28.65-11.5-28.7l-4.66,22.12c-1.3-.33-4.88-2.72-5.84-1.62-1.14,1.3-1.96,4.99-2.02,7.84,1.94,3.45-3,4.13-1.79.34l-8.27-30.98c-.91-3.4-9.1-5.52-7.59-12.07.28-1.21-2.14-3.24-3.07-3.07-4,.71-1.73,8.82-5.81,9.79l-5.66,1.35-2.97,30.84c-4.43,12.51-10.12,22.47-11.64,38.09-6.95-6.78-12.61-8.34-18.98-7.94-5.83-7.69-5.24-17.83-5.45-26.84l-1.17-50.3c-.45-19.49.25-38.11-3.75-58.98-4.38,3.47-2.15,8.54-4.27,14.02l-3.63-38.8c-1.62.53-3.34,1.79-3.61,4.09l-2.7,23.26c-3.31,8.18-4.97,15.32-6.24,24.87l-3.77-40.34-4.09-56.86-4.95,41.6.49-86.28c.22-38.43.55-75.64,1.76-114.28l2.44-78.3,1-65.74.39-28.05c.32-23.08,2.03-44.82-1.33-68.11-4.03,21.51-3.23,43.35-3.66,66.12l-.94,50.07-2.38,90.07c-1.18,0-1.98-.59-2.46-1.18l.27-94.98c.04-14.75.82-28.74-1.69-42.82l-4.06,86.82-1.81,98.05,1.31,89.04c.18,11.93-.61,21.11-.61,33.46v25.4s-.11,28.14-.11,28.14c-.07,18.06,1.32,35.55-3.98,52.4-1.9-10.42,1.87-19.88-3.1-29.65-4.68,19.71-.33,38.38-7.14,57.99l-1.37-115.42.06-35.42.33-49.94c.12-17.31.62-33.53,1.27-50.66l2.28-60.01,3.02-103.11,1.56-68.21c.21-9.07-1.12-18.56,3.12-26.59-2.72-4.35-4.89-10.46-3.24-17.46-5.07-3.81-10.57-7.09-16.72-8.55l-31.38-7.46c-8.5-2.02-15.61-5.12-23.98-8.15-6.38-2.31-11.57-9.84-19.99-9.05-7.48-9.21-16.58-14.23-26.57-19.85-4.76-8.2-10.04-19.16-20.09-21.51-21.89-5.13-24.83-22.03-24.94-21.84.52-.89,2.07-2,3.6-3.24l-11.08-10.54c-13.36-2.71-29.47-18.26-27.56-28.49-8.17-3.4-11.69-11.55-16.44-17.85-10.57-13.99-19.85-27.28-26.68-43.75-1.57-3.79-6.13-7.04-1.94-13.25-10.06-6.73-16.39-15.16-20.85-25.72-8.57-20.29-21.22-40.64-29.91-62.18-3.51-8.69-8.25-15.91-10.98-25.21s-8.19-21.31-12.9-33.01l-10.69-26.56c-.86-8.26-4.29-12.46-6.41-20.06l-7.38-26.47c-7.08-25.41-20.5-49.11-26.17-80.22-2.12-11.64-9.45-22.75-5.6-34.81l6.59,12.04c3.96-2.22,1.88-6.86,3.18-10.63,3.24,9.29,3.01,21.9,10.33,28.91,9.61,9.19,6.06,18.14,11.51,26.89,9.46,15.18-.7,22.29,11.18,28.92l5.67,24.26c8.2,17.46,11.5,35.66,17.62,50.52l41.9,101.76,25.55,52.58c-1.4-.64-4.27-2.57-6.78-2.02,3.52,9.78,8.16,16.11,13.34,23.01,1.88-2.36.66-4.6,1.38-6.08,12.37,12.41,15,31.79,26.6,32.7l-10.55-18.01-36.59-74.7-18.71-43.63-6.86-17.02-19.88-49.75-11.5-32.46-15.25-42.9-11.61-34.05c-3.79-11.12-6.27-21.73-9.18-33.28l-10.1-40.13c-1.71-6.81-.98-15.18-4.38-21.39-6.13-11.21-6.24-22.02-8.63-34.05-2.56-12.89-10.71-26.88-5.8-39.9,3.27-8.67,16.92-4.6,22.73-4.71,5.29-6.8,8.61-16.06,18.93-17.71l6.69-10.8c7.24-1.37,7.32-8.79,8.82-12.82,7.1-5.87,18.88-1.84,23.98,3.87,8.9,1.58,15.04,1.32,18.73-6.12,8.98-.16,16.87-2.99,22.08-10.08,9.37-.69,18.26-1.96,24.87-9.01,7.21-1.91,15.73.25,23.04-1.01,14.18-2.44,25.67.99,38.65,5.3,9.75,3.24,19.78,5.79,23.52,17.45,9.24,2.61,11.99,10.62,14.84,18.66l19.52,50.7,32.46,89.57,16.36,39.49,12.79,31.12,10.17,21.65,24.69,55.3c6.93,15.53,13.2,30.15,21.07,45.07l23.68,44.87,9.39,16.51,27.01,40.74c5.55-14.61,13.59-24.46,21.22-36.32l9.4-14.61,16.45-27.45c5.86-9.78,11.44-19.11,17.27-28.77l27.91-46.24,31.15-51.16,54.37-87.76c4.53-7.31,7.94-14.14,12.62-21.44l37.38-58.36,19.38-32.47,12.78-21.01,79.98-129.96,18.65-29.9c15.51-2.86,12.02-14.9,20.31-14.48l-9.24,15.21c3.84,3.09,3.7,5.91,1.22,9.5-7.31,10.56-12.21,20.94-17.67,32.69-1.52,3.26-6.81,5.42-4.82,10.88l7.4-10.7c4.69-6.78,10.21-11.59,14.2-18.87,1.63.94,5.76,1.64,6.66.48,6.53-8.4,14.39-14,22.21-20.27l13.53-18.76,2.32.7-11.43,22.15-11.49,24.99c2.4-.37,5.22-1.83,6.45-3.62l18.63-27.09c2.99,3.61-.76,6.86-.76,8.52.22,6.25-1.6,9.6-6.33,14.37,6.39,2.61,7.45-2.22,10.42-3.07l-23.12,42.06c.7.13,2.05.58,2.31.72l15.3-21.04c5.27-7.24,10.77-13.16,15.48-20.64l20.14-32.01c-.25,8.41-4.34,13.18-3.74,21.3.2,2.73-6.19,8.07-.36,11.76l26.17-36.88c2.79-3.94,5.16-7.87,9.36-8.67.6,2.8-.26,5.87-2.48,8.09,6.17-1.28,6.66-5.8,6.86-9.69,3.5-1.67,4.39-7.37,10.08-5.78-4.72,5.15-8.26,11.73-7.65,17.94,3.42-3.62,4.28-8,10.14-7.55l-16.29,29.45c3.88,1.32,5.57-2.45,6.35-3.92,4.26,4.7-2.16,6.97-2.85,9.38-1.56,5.48-2.94,10.81-6.54,16.31,6.54-1.73,7.49-6.83,12.04-9.85-1.14,4.1-3.86,6.7-2.4,10.51,2.79-4.95,6.51-1.94,3.89,1.37l-14.7,32.81c16.97-8.77,21.6-30.24,27.33-25.77l-31.83,53.11c6.91-1.15,8.11-8.57,11.81-12.44,7.55-7.91,11.19-16.51,16.87-25.54,6.09-9.67,15.28-16.72,19.7-28.56,2.35,1.88,2.43,3.53,2.54,6.68,9.18-5.92,13.63-15.85,22.16-23.57,3.9-3.53,9.02-10.09,12.96-12.41,10.04-5.92,17.15-11.09,24.78-20.26,5.5-6.6,12.98-11.16,16.84-21.73,3.8,7.6-1.53,11.87-6,15.67ZM925.14,78.1c1.39-1.94-1.66-3.63-2.68-2.43-.7.83-1.21,1.44-1.25,4.25-.89,1.83-4.83,4.09-3.06,7.94l6.99-9.77ZM726.39,680.99c2.61-3.64-1.63-3.98-1.94-2.75-.93.54-1.4,1.68-1.07,2.87,1.43,3.72,2.43,1.25,3.01-.12ZM681.25,701c2.19-6.03,6.15-14.08.74-20.82-4.91,5.7-5.13,12.48-5.65,18.73.31,1.66,2.61,2.84,4.91,2.09ZM170.48,745.7l-1,1,1,1,1-1-1-1ZM227.71,826.22l-38.03-52.48c4.31,22.63,22.42,42.21,38.03,52.48ZM477.59,1178.27l-6.58,1.22,1.51,8.12,6.58-1.22-1.51-8.12ZM562.66,1298.21c.5-8.25-1.69-18.77-10.39-23.32-4.52-2.36-11.1-1.33-14.85-.08-.53,5.16.15,11.92,2.77,14.01,2.12,1.69,6.39,5.27,9.23,3.44,2.56-2.03,6.5-3.86,8.39-1.99,1.14,1.12-1.26,5.99,4.84,7.94Z"/>
      <path class="cls-1" d="M931.65,63.8l-4.37,1.6,5.44-11.9c1.87,4.46-.92,7.37-1.07,10.3Z"/>
      <path class="cls-1" d="M143.98,712.1c-2.03-2.03-5.79-3.01-4.24-7.84,3.05.72,4.78,3.53,4.24,7.84Z"/>
      <path class="cls-1" d="M139.74,704.26l-1.9-2.24,1.9,2.24Z"/>
      <path class="cls-1" d="M137.84,702.02c-1.19-1.15-1.55-2.29-1.8-4.83l1.8,4.83Z"/>
    </g>
  </g>
  <path class="cls-1" d="M1753.58,399.08c.04,11.84-.81,22.39-4.22,32.86l-.4-86.26.39-69.27c4.44,16.06,3.93,30.99,3.98,46.76l.24,75.91Z"/>
  <path class="cls-1" d="M952.6,33.42c-2.29,5.8-4.76,6.33-6.97,8.57-1.73-3.54-.24-5.2.51-6.81,1.38-2.95,4.85-4.01,6.46-1.76Z"/>
  <rect class="cls-1" x="894.87" y="70.63" width="10.63" height="3.77" transform="translate(374.86 807.11) rotate(-59.04)"/>
  <rect class="cls-1" x="932.87" y="46.63" width="10.63" height="3.77" transform="translate(413.89 828.04) rotate(-59.04)"/>
  <rect class="cls-1" x="859.01" y="64.1" width="8.57" height="3.77" transform="translate(362.55 772.31) rotate(-59.04)"/>
  <path class="cls-1" d="M1756,1160.19c1.31-1.59,3.46-.31,3.45.55l-.03,3.91c0,1.08-2.04,1.78-2.99,1.02-1.45-1.17-1.61-4.06-.44-5.48Z"/>
  <circle class="cls-1" cx="1841.65" cy="19.69" r="2.33"/>
  <path class="cls-2" d="M1037.44,66.47c-.47-3.19,1.28-4.97,3.44-6.81.84,2.7-.64,5.28-3.44,6.81Z"/>
</svg>